<?xml version="1.0" encoding="iso-8859-1"?>
<!-- Uploaded to: SVG Repo, www.svgrepo.com, Generator: SVG Repo Mixer Tools -->
<svg height="200px" stroke-width="10" stroke="#ffffff" width="200px" version="1.1" id="Layer_1" xmlns="http://www.w3.org/2000/svg"
	xmlns:xlink="http://www.w3.org/1999/xlink" viewBox="0 0 512 512" xml:space="preserve">
	<path style="fill:none;" d="M256,499.2c-98.807,0-179.2-80.393-179.2-179.2c0-84.369,50.304-147.115,103.552-213.555
	c22.4-27.947,45.568-56.858,64.794-87.629h21.717c19.226,30.763,42.394,59.674,64.794,87.629
	C384.896,172.885,435.2,235.631,435.2,320C435.2,418.807,354.807,499.2,256,499.2z" />
	<g>
		<path style="fill:#ffffff;" d="M341.641,98.432c-22.17-27.665-45.099-56.269-63.932-86.4C273.033,4.548,264.823,0,256,0
		c-8.823,0-17.033,4.548-21.709,12.032c-18.833,30.14-41.762,58.743-63.932,86.4C118.067,163.678,64,231.142,64,320
		c0,105.865,86.135,192,192,192s192-86.135,192-192C448,231.142,393.933,163.678,341.641,98.432z M256,486.4
		c-91.904,0-166.4-74.496-166.4-166.4C89.6,204.8,192,128,256,25.6C320,128,422.4,204.8,422.4,320
		C422.4,411.904,347.904,486.4,256,486.4z" />
		<path style="fill:#ffffff;" d="M384,309.564c-7.074,0-12.8,5.726-12.8,12.8c0,63.522-51.678,115.2-115.2,115.2
		c-7.074,0-12.8,5.726-12.8,12.8s5.726,12.8,12.8,12.8c77.628,0,140.8-63.172,140.8-140.8C396.8,315.29,391.074,309.564,384,309.564
		z" />
	</g>
</svg>